<svg xmlns="http://www.w3.org/2000/svg" version="1.1" xmlns:xlink="http://www.w3.org/1999/xlink" xmlns:svgjs="http://svgjs.dev/svgjs" viewBox="0 0 2400 800" opacity="0.95"><defs><linearGradient x1="50%" y1="0%" x2="50%" y2="100%" id="sssurf-grad"><stop stop-color="hsla(19, 100%, 69%, 1.00)" stop-opacity="1" offset="0%"></stop><stop stop-color="hsl(208, 74%, 93%)" stop-opacity="1" offset="100%"></stop></linearGradient></defs><g fill="url(#sssurf-grad)" transform="matrix(1,0,0,1,9.4296875,182.02010345458984)"><path d="M-10,10C33.75,17.5,114.58333333333334,66.83333333333334,200,46C285.41666666666663,25.166666666666664,316.66666666666663,-94.16666666666667,400,-90C483.33333333333337,-85.83333333333333,516.6666666666666,67.25,600,66C683.3333333333334,64.75,716.6666666666666,-93.29166666666667,800,-96C883.3333333333334,-98.70833333333333,916.6666666666666,36.125,1000,53C1083.3333333333333,69.875,1116.6666666666667,-22.291666666666664,1200,-15C1283.3333333333333,-7.708333333333334,1316.6666666666667,91.125,1400,88C1483.3333333333333,84.875,1516.6666666666667,-27.708333333333332,1600,-30C1683.3333333333333,-32.291666666666664,1716.6666666666667,77.41666666666667,1800,77C1883.3333333333333,76.58333333333333,1916.6666666666667,-35.333333333333336,2000,-32C2083.3333333333335,-28.666666666666668,2116.6666666666665,94.04166666666667,2200,93C2283.3333333333335,91.95833333333333,2306.25,-100.95833333333333,2400,-37C2493.75,26.95833333333333,3254.1666666666665,204.79166666666669,2650,400C2045.8333333333335,595.2083333333333,156.25,795.8333333333334,-500,900" transform="matrix(1,0,0,1,0,48)" opacity="0.05"></path><path d="M-10,10C33.75,17.5,114.58333333333334,66.83333333333334,200,46C285.41666666666663,25.166666666666664,316.66666666666663,-94.16666666666667,400,-90C483.33333333333337,-85.83333333333333,516.6666666666666,67.25,600,66C683.3333333333334,64.75,716.6666666666666,-93.29166666666667,800,-96C883.3333333333334,-98.70833333333333,916.6666666666666,36.125,1000,53C1083.3333333333333,69.875,1116.6666666666667,-22.291666666666664,1200,-15C1283.3333333333333,-7.708333333333334,1316.6666666666667,91.125,1400,88C1483.3333333333333,84.875,1516.6666666666667,-27.708333333333332,1600,-30C1683.3333333333333,-32.291666666666664,1716.6666666666667,77.41666666666667,1800,77C1883.3333333333333,76.58333333333333,1916.6666666666667,-35.333333333333336,2000,-32C2083.3333333333335,-28.666666666666668,2116.6666666666665,94.04166666666667,2200,93C2283.3333333333335,91.95833333333333,2306.25,-100.95833333333333,2400,-37C2493.75,26.95833333333333,3254.1666666666665,204.79166666666669,2650,400C2045.8333333333335,595.2083333333333,156.25,795.8333333333334,-500,900" transform="matrix(1,0,0,1,0,96)" opacity="0.19"></path><path d="M-10,10C33.75,17.5,114.58333333333334,66.83333333333334,200,46C285.41666666666663,25.166666666666664,316.66666666666663,-94.16666666666667,400,-90C483.33333333333337,-85.83333333333333,516.6666666666666,67.25,600,66C683.3333333333334,64.75,716.6666666666666,-93.29166666666667,800,-96C883.3333333333334,-98.70833333333333,916.6666666666666,36.125,1000,53C1083.3333333333333,69.875,1116.6666666666667,-22.291666666666664,1200,-15C1283.3333333333333,-7.708333333333334,1316.6666666666667,91.125,1400,88C1483.3333333333333,84.875,1516.6666666666667,-27.708333333333332,1600,-30C1683.3333333333333,-32.291666666666664,1716.6666666666667,77.41666666666667,1800,77C1883.3333333333333,76.58333333333333,1916.6666666666667,-35.333333333333336,2000,-32C2083.3333333333335,-28.666666666666668,2116.6666666666665,94.04166666666667,2200,93C2283.3333333333335,91.95833333333333,2306.25,-100.95833333333333,2400,-37C2493.75,26.95833333333333,3254.1666666666665,204.79166666666669,2650,400C2045.8333333333335,595.2083333333333,156.25,795.8333333333334,-500,900" transform="matrix(1,0,0,1,0,144)" opacity="0.32"></path><path d="M-10,10C33.75,17.5,114.58333333333334,66.83333333333334,200,46C285.41666666666663,25.166666666666664,316.66666666666663,-94.16666666666667,400,-90C483.33333333333337,-85.83333333333333,516.6666666666666,67.25,600,66C683.3333333333334,64.75,716.6666666666666,-93.29166666666667,800,-96C883.3333333333334,-98.70833333333333,916.6666666666666,36.125,1000,53C1083.3333333333333,69.875,1116.6666666666667,-22.291666666666664,1200,-15C1283.3333333333333,-7.708333333333334,1316.6666666666667,91.125,1400,88C1483.3333333333333,84.875,1516.6666666666667,-27.708333333333332,1600,-30C1683.3333333333333,-32.291666666666664,1716.6666666666667,77.41666666666667,1800,77C1883.3333333333333,76.58333333333333,1916.6666666666667,-35.333333333333336,2000,-32C2083.3333333333335,-28.666666666666668,2116.6666666666665,94.04166666666667,2200,93C2283.3333333333335,91.95833333333333,2306.25,-100.95833333333333,2400,-37C2493.75,26.95833333333333,3254.1666666666665,204.79166666666669,2650,400C2045.8333333333335,595.2083333333333,156.25,795.8333333333334,-500,900" transform="matrix(1,0,0,1,0,192)" opacity="0.46"></path><path d="M-10,10C33.75,17.5,114.58333333333334,66.83333333333334,200,46C285.41666666666663,25.166666666666664,316.66666666666663,-94.16666666666667,400,-90C483.33333333333337,-85.83333333333333,516.6666666666666,67.25,600,66C683.3333333333334,64.75,716.6666666666666,-93.29166666666667,800,-96C883.3333333333334,-98.70833333333333,916.6666666666666,36.125,1000,53C1083.3333333333333,69.875,1116.6666666666667,-22.291666666666664,1200,-15C1283.3333333333333,-7.708333333333334,1316.6666666666667,91.125,1400,88C1483.3333333333333,84.875,1516.6666666666667,-27.708333333333332,1600,-30C1683.3333333333333,-32.291666666666664,1716.6666666666667,77.41666666666667,1800,77C1883.3333333333333,76.58333333333333,1916.6666666666667,-35.333333333333336,2000,-32C2083.3333333333335,-28.666666666666668,2116.6666666666665,94.04166666666667,2200,93C2283.3333333333335,91.95833333333333,2306.25,-100.95833333333333,2400,-37C2493.75,26.95833333333333,3254.1666666666665,204.79166666666669,2650,400C2045.8333333333335,595.2083333333333,156.25,795.8333333333334,-500,900" transform="matrix(1,0,0,1,0,240)" opacity="0.59"></path><path d="M-10,10C33.75,17.5,114.58333333333334,66.83333333333334,200,46C285.41666666666663,25.166666666666664,316.66666666666663,-94.16666666666667,400,-90C483.33333333333337,-85.83333333333333,516.6666666666666,67.25,600,66C683.3333333333334,64.75,716.6666666666666,-93.29166666666667,800,-96C883.3333333333334,-98.70833333333333,916.6666666666666,36.125,1000,53C1083.3333333333333,69.875,1116.6666666666667,-22.291666666666664,1200,-15C1283.3333333333333,-7.708333333333334,1316.6666666666667,91.125,1400,88C1483.3333333333333,84.875,1516.6666666666667,-27.708333333333332,1600,-30C1683.3333333333333,-32.291666666666664,1716.6666666666667,77.41666666666667,1800,77C1883.3333333333333,76.58333333333333,1916.6666666666667,-35.333333333333336,2000,-32C2083.3333333333335,-28.666666666666668,2116.6666666666665,94.04166666666667,2200,93C2283.3333333333335,91.95833333333333,2306.25,-100.95833333333333,2400,-37C2493.75,26.95833333333333,3254.1666666666665,204.79166666666669,2650,400C2045.8333333333335,595.2083333333333,156.25,795.8333333333334,-500,900" transform="matrix(1,0,0,1,0,288)" opacity="0.73"></path><path d="M-10,10C33.75,17.5,114.58333333333334,66.83333333333334,200,46C285.41666666666663,25.166666666666664,316.66666666666663,-94.16666666666667,400,-90C483.33333333333337,-85.83333333333333,516.6666666666666,67.25,600,66C683.3333333333334,64.75,716.6666666666666,-93.29166666666667,800,-96C883.3333333333334,-98.70833333333333,916.6666666666666,36.125,1000,53C1083.3333333333333,69.875,1116.6666666666667,-22.291666666666664,1200,-15C1283.3333333333333,-7.708333333333334,1316.6666666666667,91.125,1400,88C1483.3333333333333,84.875,1516.6666666666667,-27.708333333333332,1600,-30C1683.3333333333333,-32.291666666666664,1716.6666666666667,77.41666666666667,1800,77C1883.3333333333333,76.58333333333333,1916.6666666666667,-35.333333333333336,2000,-32C2083.3333333333335,-28.666666666666668,2116.6666666666665,94.04166666666667,2200,93C2283.3333333333335,91.95833333333333,2306.25,-100.95833333333333,2400,-37C2493.75,26.95833333333333,3254.1666666666665,204.79166666666669,2650,400C2045.8333333333335,595.2083333333333,156.25,795.8333333333334,-500,900" transform="matrix(1,0,0,1,0,336)" opacity="0.86"></path><path d="M-10,10C33.75,17.5,114.58333333333334,66.83333333333334,200,46C285.41666666666663,25.166666666666664,316.66666666666663,-94.16666666666667,400,-90C483.33333333333337,-85.83333333333333,516.6666666666666,67.25,600,66C683.3333333333334,64.75,716.6666666666666,-93.29166666666667,800,-96C883.3333333333334,-98.70833333333333,916.6666666666666,36.125,1000,53C1083.3333333333333,69.875,1116.6666666666667,-22.291666666666664,1200,-15C1283.3333333333333,-7.708333333333334,1316.6666666666667,91.125,1400,88C1483.3333333333333,84.875,1516.6666666666667,-27.708333333333332,1600,-30C1683.3333333333333,-32.291666666666664,1716.6666666666667,77.41666666666667,1800,77C1883.3333333333333,76.58333333333333,1916.6666666666667,-35.333333333333336,2000,-32C2083.3333333333335,-28.666666666666668,2116.6666666666665,94.04166666666667,2200,93C2283.3333333333335,91.95833333333333,2306.25,-100.95833333333333,2400,-37C2493.75,26.95833333333333,3254.1666666666665,204.79166666666669,2650,400C2045.8333333333335,595.2083333333333,156.25,795.8333333333334,-500,900" transform="matrix(1,0,0,1,0,384)" opacity="1.00"></path></g></svg>